solid gem
 facet normal -1.341838e-01 -7.609940e-01 -6.347305e-01
  outer loop
   vertex 1.595025e-16 -1.000000e+00 3.303548e-01
   vertex -3.420202e-01 -9.396926e-01 3.303548e-01
   vertex 1.109321e-16 -6.618125e-01 -7.510647e-02
  endloop
 endfacet
 facet normal -3.863668e-01 -6.692069e-01 -6.347305e-01
  outer loop
   vertex -3.420202e-01 -9.396926e-01 3.303548e-01
   vertex -6.427876e-01 -7.660444e-01 3.303548e-01
   vertex -4.254049e-01 -5.069778e-01 -7.510647e-02
  endloop
 endfacet
 facet normal -5.919483e-01 -4.967036e-01 -6.347305e-01
  outer loop
   vertex -6.427876e-01 -7.660444e-01 3.303548e-01
   vertex -8.660254e-01 -5.000000e-01 3.303548e-01
   vertex -4.254049e-01 -5.069778e-01 -7.510647e-02
  endloop
 endfacet
 facet normal -7.261320e-01 -2.642905e-01 -6.347305e-01
  outer loop
   vertex -8.660254e-01 -5.000000e-01 3.303548e-01
   vertex -9.848077e-01 -1.736482e-01 3.303548e-01
   vertex -6.517581e-01 -1.149225e-01 -7.510647e-02
  endloop
 endfacet
 facet normal -7.727336e-01 1.892651e-16 -6.347305e-01
  outer loop
   vertex -9.848077e-01 -1.736482e-01 3.303548e-01
   vertex -9.848077e-01 1.736482e-01 3.303548e-01
   vertex -6.517581e-01 -1.149225e-01 -7.510647e-02
  endloop
 endfacet
 facet normal -7.261320e-01 2.642905e-01 -6.347305e-01
  outer loop
   vertex -9.848077e-01 1.736482e-01 3.303548e-01
   vertex -8.660254e-01 5.000000e-01 3.303548e-01
   vertex -5.731465e-01 3.309062e-01 -7.510647e-02
  endloop
 endfacet
 facet normal -5.919483e-01 4.967036e-01 -6.347305e-01
  outer loop
   vertex -8.660254e-01 5.000000e-01 3.303548e-01
   vertex -6.427876e-01 7.660444e-01 3.303548e-01
   vertex -5.731465e-01 3.309062e-01 -7.510647e-02
  endloop
 endfacet
 facet normal -3.863668e-01 6.692069e-01 -6.347305e-01
  outer loop
   vertex -6.427876e-01 7.660444e-01 3.303548e-01
   vertex -3.420202e-01 9.396926e-01 3.303548e-01
   vertex -2.263532e-01 6.219003e-01 -7.510647e-02
  endloop
 endfacet
 facet normal -1.341838e-01 7.609940e-01 -6.347305e-01
  outer loop
   vertex -3.420202e-01 9.396926e-01 3.303548e-01
   vertex 1.595025e-16 1.000000e+00 3.303548e-01
   vertex -2.263532e-01 6.219003e-01 -7.510647e-02
  endloop
 endfacet
 facet normal 1.341838e-01 7.609940e-01 -6.347305e-01
  outer loop
   vertex 1.595025e-16 1.000000e+00 3.303548e-01
   vertex 3.420202e-01 9.396926e-01 3.303548e-01
   vertex 2.263532e-01 6.219003e-01 -7.510647e-02
  endloop
 endfacet
 facet normal 3.863668e-01 6.692069e-01 -6.347305e-01
  outer loop
   vertex 3.420202e-01 9.396926e-01 3.303548e-01
   vertex 6.427876e-01 7.660444e-01 3.303548e-01
   vertex 2.263532e-01 6.219003e-01 -7.510647e-02
  endloop
 endfacet
 facet normal 5.919483e-01 4.967036e-01 -6.347305e-01
  outer loop
   vertex 6.427876e-01 7.660444e-01 3.303548e-01
   vertex 8.660254e-01 5.000000e-01 3.303548e-01
   vertex 5.731465e-01 3.309062e-01 -7.510647e-02
  endloop
 endfacet
 facet normal 7.261320e-01 2.642905e-01 -6.347305e-01
  outer loop
   vertex 8.660254e-01 5.000000e-01 3.303548e-01
   vertex 9.848077e-01 1.736482e-01 3.303548e-01
   vertex 5.731465e-01 3.309062e-01 -7.510647e-02
  endloop
 endfacet
 facet normal 7.727336e-01 -9.463257e-17 -6.347305e-01
  outer loop
   vertex 9.848077e-01 1.736482e-01 3.303548e-01
   vertex 9.848077e-01 -1.736482e-01 3.303548e-01
   vertex 6.517581e-01 -1.149225e-01 -7.510647e-02
  endloop
 endfacet
 facet normal 7.261320e-01 -2.642905e-01 -6.347305e-01
  outer loop
   vertex 9.848077e-01 -1.736482e-01 3.303548e-01
   vertex 8.660254e-01 -5.000000e-01 3.303548e-01
   vertex 6.517581e-01 -1.149225e-01 -7.510647e-02
  endloop
 endfacet
 facet normal 5.919483e-01 -4.967036e-01 -6.347305e-01
  outer loop
   vertex 8.660254e-01 -5.000000e-01 3.303548e-01
   vertex 6.427876e-01 -7.660444e-01 3.303548e-01
   vertex 4.254049e-01 -5.069778e-01 -7.510647e-02
  endloop
 endfacet
 facet normal 3.863668e-01 -6.692069e-01 -6.347305e-01
  outer loop
   vertex 6.427876e-01 -7.660444e-01 3.303548e-01
   vertex 3.420202e-01 -9.396926e-01 3.303548e-01
   vertex 4.254049e-01 -5.069778e-01 -7.510647e-02
  endloop
 endfacet
 facet normal 1.341838e-01 -7.609940e-01 -6.347305e-01
  outer loop
   vertex 3.420202e-01 -9.396926e-01 3.303548e-01
   vertex 1.595025e-16 -1.000000e+00 3.303548e-01
   vertex 1.109321e-16 -6.618125e-01 -7.510647e-02
  endloop
 endfacet
 facet normal -1.736482e-01 -9.848077e-01 1.224647e-16
  outer loop
   vertex -3.420202e-01 -9.396926e-01 3.303548e-01
   vertex 1.595025e-16 -1.000000e+00 3.303548e-01
   vertex 1.593492e-16 -1.000000e+00 3.514213e-01
  endloop
 endfacet
 facet normal -1.736482e-01 -9.848077e-01 1.224647e-16
  outer loop
   vertex -3.420202e-01 -9.396926e-01 3.514213e-01
   vertex -3.420202e-01 -9.396926e-01 3.303548e-01
   vertex 1.593492e-16 -1.000000e+00 3.514213e-01
  endloop
 endfacet
 facet normal -5.000000e-01 -8.660254e-01 1.224647e-16
  outer loop
   vertex -3.420202e-01 -9.396926e-01 3.303548e-01
   vertex -3.420202e-01 -9.396926e-01 3.514213e-01
   vertex -6.427876e-01 -7.660444e-01 3.514213e-01
  endloop
 endfacet
 facet normal -5.000000e-01 -8.660254e-01 1.224647e-16
  outer loop
   vertex -6.427876e-01 -7.660444e-01 3.303548e-01
   vertex -3.420202e-01 -9.396926e-01 3.303548e-01
   vertex -6.427876e-01 -7.660444e-01 3.514213e-01
  endloop
 endfacet
 facet normal -7.660444e-01 -6.427876e-01 1.224647e-16
  outer loop
   vertex -8.660254e-01 -5.000000e-01 3.303548e-01
   vertex -6.427876e-01 -7.660444e-01 3.303548e-01
   vertex -6.427876e-01 -7.660444e-01 3.514213e-01
  endloop
 endfacet
 facet normal -7.660444e-01 -6.427876e-01 1.224647e-16
  outer loop
   vertex -8.660254e-01 -5.000000e-01 3.514213e-01
   vertex -8.660254e-01 -5.000000e-01 3.303548e-01
   vertex -6.427876e-01 -7.660444e-01 3.514213e-01
  endloop
 endfacet
 facet normal -9.396926e-01 -3.420202e-01 1.224647e-16
  outer loop
   vertex -8.660254e-01 -5.000000e-01 3.303548e-01
   vertex -8.660254e-01 -5.000000e-01 3.514213e-01
   vertex -9.848077e-01 -1.736482e-01 3.514213e-01
  endloop
 endfacet
 facet normal -9.396926e-01 -3.420202e-01 1.224647e-16
  outer loop
   vertex -9.848077e-01 -1.736482e-01 3.303548e-01
   vertex -8.660254e-01 -5.000000e-01 3.303548e-01
   vertex -9.848077e-01 -1.736482e-01 3.514213e-01
  endloop
 endfacet
 facet normal -1.000000e+00 2.449294e-16 1.224647e-16
  outer loop
   vertex -9.848077e-01 1.736482e-01 3.303548e-01
   vertex -9.848077e-01 -1.736482e-01 3.303548e-01
   vertex -9.848077e-01 -1.736482e-01 3.514213e-01
  endloop
 endfacet
 facet normal -1.000000e+00 2.449294e-16 1.224647e-16
  outer loop
   vertex -9.848077e-01 1.736482e-01 3.514213e-01
   vertex -9.848077e-01 1.736482e-01 3.303548e-01
   vertex -9.848077e-01 -1.736482e-01 3.514213e-01
  endloop
 endfacet
 facet normal -9.396926e-01 3.420202e-01 1.224647e-16
  outer loop
   vertex -9.848077e-01 1.736482e-01 3.303548e-01
   vertex -9.848077e-01 1.736482e-01 3.514213e-01
   vertex -8.660254e-01 5.000000e-01 3.514213e-01
  endloop
 endfacet
 facet normal -9.396926e-01 3.420202e-01 1.224647e-16
  outer loop
   vertex -8.660254e-01 5.000000e-01 3.303548e-01
   vertex -9.848077e-01 1.736482e-01 3.303548e-01
   vertex -8.660254e-01 5.000000e-01 3.514213e-01
  endloop
 endfacet
 facet normal -7.660444e-01 6.427876e-01 1.224647e-16
  outer loop
   vertex -6.427876e-01 7.660444e-01 3.303548e-01
   vertex -8.660254e-01 5.000000e-01 3.303548e-01
   vertex -8.660254e-01 5.000000e-01 3.514213e-01
  endloop
 endfacet
 facet normal -7.660444e-01 6.427876e-01 1.224647e-16
  outer loop
   vertex -6.427876e-01 7.660444e-01 3.514213e-01
   vertex -6.427876e-01 7.660444e-01 3.303548e-01
   vertex -8.660254e-01 5.000000e-01 3.514213e-01
  endloop
 endfacet
 facet normal -5.000000e-01 8.660254e-01 1.224647e-16
  outer loop
   vertex -6.427876e-01 7.660444e-01 3.303548e-01
   vertex -6.427876e-01 7.660444e-01 3.514213e-01
   vertex -3.420202e-01 9.396926e-01 3.514213e-01
  endloop
 endfacet
 facet normal -5.000000e-01 8.660254e-01 1.224647e-16
  outer loop
   vertex -3.420202e-01 9.396926e-01 3.303548e-01
   vertex -6.427876e-01 7.660444e-01 3.303548e-01
   vertex -3.420202e-01 9.396926e-01 3.514213e-01
  endloop
 endfacet
 facet normal -1.736482e-01 9.848077e-01 1.224647e-16
  outer loop
   vertex 1.595025e-16 1.000000e+00 3.303548e-01
   vertex -3.420202e-01 9.396926e-01 3.303548e-01
   vertex -3.420202e-01 9.396926e-01 3.514213e-01
  endloop
 endfacet
 facet normal -1.736482e-01 9.848077e-01 1.224647e-16
  outer loop
   vertex 1.558409e-16 1.000000e+00 3.514213e-01
   vertex 1.595025e-16 1.000000e+00 3.303548e-01
   vertex -3.420202e-01 9.396926e-01 3.514213e-01
  endloop
 endfacet
 facet normal 1.736482e-01 9.848077e-01 1.224647e-16
  outer loop
   vertex 1.595025e-16 1.000000e+00 3.303548e-01
   vertex 1.558409e-16 1.000000e+00 3.514213e-01
   vertex 3.420202e-01 9.396926e-01 3.514213e-01
  endloop
 endfacet
 facet normal 1.736482e-01 9.848077e-01 1.224647e-16
  outer loop
   vertex 3.420202e-01 9.396926e-01 3.303548e-01
   vertex 1.595025e-16 1.000000e+00 3.303548e-01
   vertex 3.420202e-01 9.396926e-01 3.514213e-01
  endloop
 endfacet
 facet normal 5.000000e-01 8.660254e-01 1.224647e-16
  outer loop
   vertex 6.427876e-01 7.660444e-01 3.303548e-01
   vertex 3.420202e-01 9.396926e-01 3.303548e-01
   vertex 3.420202e-01 9.396926e-01 3.514213e-01
  endloop
 endfacet
 facet normal 5.000000e-01 8.660254e-01 1.224647e-16
  outer loop
   vertex 6.427876e-01 7.660444e-01 3.514213e-01
   vertex 6.427876e-01 7.660444e-01 3.303548e-01
   vertex 3.420202e-01 9.396926e-01 3.514213e-01
  endloop
 endfacet
 facet normal 7.660444e-01 6.427876e-01 1.224647e-16
  outer loop
   vertex 6.427876e-01 7.660444e-01 3.303548e-01
   vertex 6.427876e-01 7.660444e-01 3.514213e-01
   vertex 8.660254e-01 5.000000e-01 3.514213e-01
  endloop
 endfacet
 facet normal 7.660444e-01 6.427876e-01 1.224647e-16
  outer loop
   vertex 8.660254e-01 5.000000e-01 3.303548e-01
   vertex 6.427876e-01 7.660444e-01 3.303548e-01
   vertex 8.660254e-01 5.000000e-01 3.514213e-01
  endloop
 endfacet
 facet normal 9.396926e-01 3.420202e-01 1.224647e-16
  outer loop
   vertex 9.848077e-01 1.736482e-01 3.303548e-01
   vertex 8.660254e-01 5.000000e-01 3.303548e-01
   vertex 8.660254e-01 5.000000e-01 3.514213e-01
  endloop
 endfacet
 facet normal 9.396926e-01 3.420202e-01 1.224647e-16
  outer loop
   vertex 9.848077e-01 1.736482e-01 3.514213e-01
   vertex 9.848077e-01 1.736482e-01 3.303548e-01
   vertex 8.660254e-01 5.000000e-01 3.514213e-01
  endloop
 endfacet
 facet normal 1.000000e+00 -1.224647e-16 1.224647e-16
  outer loop
   vertex 9.848077e-01 1.736482e-01 3.303548e-01
   vertex 9.848077e-01 1.736482e-01 3.514213e-01
   vertex 9.848077e-01 -1.736482e-01 3.514213e-01
  endloop
 endfacet
 facet normal 1.000000e+00 -1.224647e-16 1.224647e-16
  outer loop
   vertex 9.848077e-01 -1.736482e-01 3.303548e-01
   vertex 9.848077e-01 1.736482e-01 3.303548e-01
   vertex 9.848077e-01 -1.736482e-01 3.514213e-01
  endloop
 endfacet
 facet normal 9.396926e-01 -3.420202e-01 1.224647e-16
  outer loop
   vertex 8.660254e-01 -5.000000e-01 3.303548e-01
   vertex 9.848077e-01 -1.736482e-01 3.303548e-01
   vertex 9.848077e-01 -1.736482e-01 3.514213e-01
  endloop
 endfacet
 facet normal 9.396926e-01 -3.420202e-01 1.224647e-16
  outer loop
   vertex 8.660254e-01 -5.000000e-01 3.514213e-01
   vertex 8.660254e-01 -5.000000e-01 3.303548e-01
   vertex 9.848077e-01 -1.736482e-01 3.514213e-01
  endloop
 endfacet
 facet normal 7.660444e-01 -6.427876e-01 1.224647e-16
  outer loop
   vertex 8.660254e-01 -5.000000e-01 3.303548e-01
   vertex 8.660254e-01 -5.000000e-01 3.514213e-01
   vertex 6.427876e-01 -7.660444e-01 3.514213e-01
  endloop
 endfacet
 facet normal 7.660444e-01 -6.427876e-01 1.224647e-16
  outer loop
   vertex 6.427876e-01 -7.660444e-01 3.303548e-01
   vertex 8.660254e-01 -5.000000e-01 3.303548e-01
   vertex 6.427876e-01 -7.660444e-01 3.514213e-01
  endloop
 endfacet
 facet normal 5.000000e-01 -8.660254e-01 1.224647e-16
  outer loop
   vertex 3.420202e-01 -9.396926e-01 3.303548e-01
   vertex 6.427876e-01 -7.660444e-01 3.303548e-01
   vertex 6.427876e-01 -7.660444e-01 3.514213e-01
  endloop
 endfacet
 facet normal 5.000000e-01 -8.660254e-01 1.224647e-16
  outer loop
   vertex 3.420202e-01 -9.396926e-01 3.514213e-01
   vertex 3.420202e-01 -9.396926e-01 3.303548e-01
   vertex 6.427876e-01 -7.660444e-01 3.514213e-01
  endloop
 endfacet
 facet normal 1.736482e-01 -9.848077e-01 1.224647e-16
  outer loop
   vertex 3.420202e-01 -9.396926e-01 3.303548e-01
   vertex 3.420202e-01 -9.396926e-01 3.514213e-01
   vertex 1.593492e-16 -1.000000e+00 3.514213e-01
  endloop
 endfacet
 facet normal 1.736482e-01 -9.848077e-01 1.224647e-16
  outer loop
   vertex 1.595025e-16 -1.000000e+00 3.303548e-01
   vertex 3.420202e-01 -9.396926e-01 3.303548e-01
   vertex 1.593492e-16 -1.000000e+00 3.514213e-01
  endloop
 endfacet
 facet normal -2.501377e-01 -6.872477e-01 -6.819984e-01
  outer loop
   vertex 1.109321e-16 -6.618125e-01 -7.510647e-02
   vertex -3.420202e-01 -9.396926e-01 3.303548e-01
   vertex -4.254049e-01 -5.069778e-01 -7.510647e-02
  endloop
 endfacet
 facet normal -2.501377e-01 -6.872477e-01 -6.819984e-01
  outer loop
   vertex -1.226173e-01 -3.368874e-01 -3.575599e-01
   vertex 1.109321e-16 -6.618125e-01 -7.510647e-02
   vertex -4.254049e-01 -5.069778e-01 -7.510647e-02
  endloop
 endfacet
 facet normal -6.333709e-01 -3.656769e-01 -6.819984e-01
  outer loop
   vertex -4.254049e-01 -5.069778e-01 -7.510647e-02
   vertex -8.660254e-01 -5.000000e-01 3.303548e-01
   vertex -6.517581e-01 -1.149225e-01 -7.510647e-02
  endloop
 endfacet
 facet normal -6.333709e-01 -3.656769e-01 -6.819984e-01
  outer loop
   vertex -3.104773e-01 -1.792538e-01 -3.575599e-01
   vertex -4.254049e-01 -5.069778e-01 -7.510647e-02
   vertex -6.517581e-01 -1.149225e-01 -7.510647e-02
  endloop
 endfacet
 facet normal -7.202428e-01 1.269982e-01 -6.819984e-01
  outer loop
   vertex -6.517581e-01 -1.149225e-01 -7.510647e-02
   vertex -9.848077e-01 1.736482e-01 3.303548e-01
   vertex -5.731465e-01 3.309062e-01 -7.510647e-02
  endloop
 endfacet
 facet normal -7.202428e-01 1.269982e-01 -6.819984e-01
  outer loop
   vertex -3.530616e-01 6.225457e-02 -3.575599e-01
   vertex -6.517581e-01 -1.149225e-01 -7.510647e-02
   vertex -5.731465e-01 3.309062e-01 -7.510647e-02
  endloop
 endfacet
 facet normal -4.701051e-01 5.602494e-01 -6.819984e-01
  outer loop
   vertex -5.731465e-01 3.309062e-01 -7.510647e-02
   vertex -6.427876e-01 7.660444e-01 3.303548e-01
   vertex -2.263532e-01 6.219003e-01 -7.510647e-02
  endloop
 endfacet
 facet normal -4.701051e-01 5.602494e-01 -6.819984e-01
  outer loop
   vertex -2.304444e-01 2.746334e-01 -3.575599e-01
   vertex -5.731465e-01 3.309062e-01 -7.510647e-02
   vertex -2.263532e-01 6.219003e-01 -7.510647e-02
  endloop
 endfacet
 facet normal 8.956500e-17 7.313537e-01 -6.819984e-01
  outer loop
   vertex -2.263532e-01 6.219003e-01 -7.510647e-02
   vertex 1.595025e-16 1.000000e+00 3.303548e-01
   vertex 2.263532e-01 6.219003e-01 -7.510647e-02
  endloop
 endfacet
 facet normal 8.956500e-17 7.313537e-01 -6.819984e-01
  outer loop
   vertex 2.776793e-07 3.585082e-01 -3.575599e-01
   vertex -2.263532e-01 6.219003e-01 -7.510647e-02
   vertex 2.263532e-01 6.219003e-01 -7.510647e-02
  endloop
 endfacet
 facet normal 4.701051e-01 5.602494e-01 -6.819984e-01
  outer loop
   vertex 2.263532e-01 6.219003e-01 -7.510647e-02
   vertex 6.427876e-01 7.660444e-01 3.303548e-01
   vertex 5.731465e-01 3.309062e-01 -7.510647e-02
  endloop
 endfacet
 facet normal 4.701051e-01 5.602494e-01 -6.819984e-01
  outer loop
   vertex 2.304448e-01 2.746330e-01 -3.575599e-01
   vertex 2.263532e-01 6.219003e-01 -7.510647e-02
   vertex 5.731465e-01 3.309062e-01 -7.510647e-02
  endloop
 endfacet
 facet normal 7.202428e-01 1.269982e-01 -6.819984e-01
  outer loop
   vertex 5.731465e-01 3.309062e-01 -7.510647e-02
   vertex 9.848077e-01 1.736482e-01 3.303548e-01
   vertex 6.517581e-01 -1.149225e-01 -7.510647e-02
  endloop
 endfacet
 facet normal 7.202428e-01 1.269982e-01 -6.819984e-01
  outer loop
   vertex 3.530617e-01 6.225402e-02 -3.575599e-01
   vertex 5.731465e-01 3.309062e-01 -7.510647e-02
   vertex 6.517581e-01 -1.149225e-01 -7.510647e-02
  endloop
 endfacet
 facet normal 6.333709e-01 -3.656769e-01 -6.819984e-01
  outer loop
   vertex 6.517581e-01 -1.149225e-01 -7.510647e-02
   vertex 8.660254e-01 -5.000000e-01 3.303548e-01
   vertex 4.254049e-01 -5.069778e-01 -7.510647e-02
  endloop
 endfacet
 facet normal 6.333709e-01 -3.656769e-01 -6.819984e-01
  outer loop
   vertex 3.104770e-01 -1.792543e-01 -3.575599e-01
   vertex 6.517581e-01 -1.149225e-01 -7.510647e-02
   vertex 4.254049e-01 -5.069778e-01 -7.510647e-02
  endloop
 endfacet
 facet normal 2.501377e-01 -6.872477e-01 -6.819984e-01
  outer loop
   vertex 3.420202e-01 -9.396926e-01 3.303548e-01
   vertex 1.109321e-16 -6.618125e-01 -7.510647e-02
   vertex 1.226173e-01 -3.368874e-01 -3.575599e-01
  endloop
 endfacet
 facet normal 2.501377e-01 -6.872477e-01 -6.819984e-01
  outer loop
   vertex 4.254049e-01 -5.069778e-01 -7.510647e-02
   vertex 3.420202e-01 -9.396926e-01 3.303548e-01
   vertex 1.226173e-01 -3.368874e-01 -3.575599e-01
  endloop
 endfacet
 facet normal 0.000000e+00 -6.560590e-01 -7.547096e-01
  outer loop
   vertex 1.109321e-16 -6.618125e-01 -7.510647e-02
   vertex -1.226173e-01 -3.368874e-01 -3.575599e-01
   vertex -4.595486e-08 -2.653205e-08 -6.504118e-01
  endloop
 endfacet
 facet normal 0.000000e+00 -6.560590e-01 -7.547096e-01
  outer loop
   vertex 1.226173e-01 -3.368874e-01 -3.575599e-01
   vertex 1.109321e-16 -6.618125e-01 -7.510647e-02
   vertex -4.595486e-08 -2.653205e-08 -6.504118e-01
  endloop
 endfacet
 facet normal -4.217066e-01 -5.025704e-01 -7.547096e-01
  outer loop
   vertex -4.254049e-01 -5.069778e-01 -7.510647e-02
   vertex -3.104773e-01 -1.792538e-01 -3.575599e-01
   vertex -4.595486e-08 -2.653205e-08 -6.504118e-01
  endloop
 endfacet
 facet normal -4.217066e-01 -5.025704e-01 -7.547096e-01
  outer loop
   vertex -1.226173e-01 -3.368874e-01 -3.575599e-01
   vertex -4.254049e-01 -5.069778e-01 -7.510647e-02
   vertex -4.595486e-08 -2.653205e-08 -6.504118e-01
  endloop
 endfacet
 facet normal -6.460920e-01 -1.139235e-01 -7.547096e-01
  outer loop
   vertex -6.517581e-01 -1.149225e-01 -7.510647e-02
   vertex -3.530616e-01 6.225457e-02 -3.575599e-01
   vertex -4.595486e-08 -2.653205e-08 -6.504118e-01
  endloop
 endfacet
 facet normal -6.460920e-01 -1.139235e-01 -7.547096e-01
  outer loop
   vertex -3.104773e-01 -1.792538e-01 -3.575599e-01
   vertex -6.517581e-01 -1.149225e-01 -7.510647e-02
   vertex -4.595486e-08 -2.653205e-08 -6.504118e-01
  endloop
 endfacet
 facet normal -5.681638e-01 3.280295e-01 -7.547096e-01
  outer loop
   vertex -5.731465e-01 3.309062e-01 -7.510647e-02
   vertex -2.304444e-01 2.746334e-01 -3.575599e-01
   vertex -4.595486e-08 -2.653205e-08 -6.504118e-01
  endloop
 endfacet
 facet normal -5.681638e-01 3.280295e-01 -7.547096e-01
  outer loop
   vertex -3.530616e-01 6.225457e-02 -3.575599e-01
   vertex -5.731465e-01 3.309062e-01 -7.510647e-02
   vertex -4.595486e-08 -2.653205e-08 -6.504118e-01
  endloop
 endfacet
 facet normal -2.243854e-01 6.164938e-01 -7.547096e-01
  outer loop
   vertex -2.263532e-01 6.219003e-01 -7.510647e-02
   vertex 2.776793e-07 3.585082e-01 -3.575599e-01
   vertex -4.595486e-08 -2.653205e-08 -6.504118e-01
  endloop
 endfacet
 facet normal -2.243854e-01 6.164938e-01 -7.547096e-01
  outer loop
   vertex -2.304444e-01 2.746334e-01 -3.575599e-01
   vertex -2.263532e-01 6.219003e-01 -7.510647e-02
   vertex -4.595486e-08 -2.653205e-08 -6.504118e-01
  endloop
 endfacet
 facet normal 2.243854e-01 6.164938e-01 -7.547096e-01
  outer loop
   vertex 2.263532e-01 6.219003e-01 -7.510647e-02
   vertex 2.304448e-01 2.746330e-01 -3.575599e-01
   vertex -4.595486e-08 -2.653205e-08 -6.504118e-01
  endloop
 endfacet
 facet normal 2.243854e-01 6.164938e-01 -7.547096e-01
  outer loop
   vertex 2.776793e-07 3.585082e-01 -3.575599e-01
   vertex 2.263532e-01 6.219003e-01 -7.510647e-02
   vertex -4.595486e-08 -2.653205e-08 -6.504118e-01
  endloop
 endfacet
 facet normal 5.681638e-01 3.280295e-01 -7.547096e-01
  outer loop
   vertex 5.731465e-01 3.309062e-01 -7.510647e-02
   vertex 3.530617e-01 6.225402e-02 -3.575599e-01
   vertex -4.595486e-08 -2.653205e-08 -6.504118e-01
  endloop
 endfacet
 facet normal 5.681638e-01 3.280295e-01 -7.547096e-01
  outer loop
   vertex 2.304448e-01 2.746330e-01 -3.575599e-01
   vertex 5.731465e-01 3.309062e-01 -7.510647e-02
   vertex -4.595486e-08 -2.653205e-08 -6.504118e-01
  endloop
 endfacet
 facet normal 6.460920e-01 -1.139235e-01 -7.547096e-01
  outer loop
   vertex 6.517581e-01 -1.149225e-01 -7.510647e-02
   vertex 3.104770e-01 -1.792543e-01 -3.575599e-01
   vertex -4.595486e-08 -2.653205e-08 -6.504118e-01
  endloop
 endfacet
 facet normal 6.460920e-01 -1.139235e-01 -7.547096e-01
  outer loop
   vertex 3.530617e-01 6.225402e-02 -3.575599e-01
   vertex 6.517581e-01 -1.149225e-01 -7.510647e-02
   vertex -4.595486e-08 -2.653205e-08 -6.504118e-01
  endloop
 endfacet
 facet normal 4.217066e-01 -5.025704e-01 -7.547096e-01
  outer loop
   vertex -4.595486e-08 -2.653205e-08 -6.504118e-01
   vertex 3.104770e-01 -1.792543e-01 -3.575599e-01
   vertex 4.254049e-01 -5.069778e-01 -7.510647e-02
  endloop
 endfacet
 facet normal 4.217066e-01 -5.025704e-01 -7.547096e-01
  outer loop
   vertex 1.226173e-01 -3.368874e-01 -3.575599e-01
   vertex -4.595486e-08 -2.653205e-08 -6.504118e-01
   vertex 4.254049e-01 -5.069778e-01 -7.510647e-02
  endloop
 endfacet
 facet normal 1.099854e-01 -6.237584e-01 7.738402e-01
  outer loop
   vertex 1.593492e-16 -1.000000e+00 3.514213e-01
   vertex 3.420202e-01 -9.396926e-01 3.514213e-01
   vertex 2.444882e-01 -6.717257e-01 5.812754e-01
  endloop
 endfacet
 facet normal 3.166904e-01 -5.485239e-01 7.738402e-01
  outer loop
   vertex 2.444882e-01 -6.717257e-01 5.812754e-01
   vertex 3.420202e-01 -9.396926e-01 3.514213e-01
   vertex 6.427876e-01 -7.660444e-01 3.514213e-01
  endloop
 endfacet
 facet normal 4.851979e-01 -4.071294e-01 7.738402e-01
  outer loop
   vertex 6.427876e-01 -7.660444e-01 3.514213e-01
   vertex 8.660254e-01 -5.000000e-01 3.514213e-01
   vertex 6.190658e-01 -3.574178e-01 5.812754e-01
  endloop
 endfacet
 facet normal 5.951833e-01 -2.166290e-01 7.738402e-01
  outer loop
   vertex 6.190658e-01 -3.574178e-01 5.812754e-01
   vertex 8.660254e-01 -5.000000e-01 3.514213e-01
   vertex 9.848077e-01 -1.736482e-01 3.514213e-01
  endloop
 endfacet
 facet normal 6.333809e-01 -7.756678e-17 7.738402e-01
  outer loop
   vertex 9.848077e-01 -1.736482e-01 3.514213e-01
   vertex 9.848077e-01 1.736482e-01 3.514213e-01
   vertex 7.039757e-01 1.241299e-01 5.812754e-01
  endloop
 endfacet
 facet normal 5.951833e-01 2.166290e-01 7.738402e-01
  outer loop
   vertex 7.039757e-01 1.241299e-01 5.812754e-01
   vertex 9.848077e-01 1.736482e-01 3.514213e-01
   vertex 8.660254e-01 5.000000e-01 3.514213e-01
  endloop
 endfacet
 facet normal 4.851979e-01 4.071294e-01 7.738402e-01
  outer loop
   vertex 8.660254e-01 5.000000e-01 3.514213e-01
   vertex 6.427876e-01 7.660444e-01 3.514213e-01
   vertex 4.594875e-01 5.475959e-01 5.812754e-01
  endloop
 endfacet
 facet normal 3.166904e-01 5.485239e-01 7.738402e-01
  outer loop
   vertex 4.594875e-01 5.475959e-01 5.812754e-01
   vertex 6.427876e-01 7.660444e-01 3.514213e-01
   vertex 3.420202e-01 9.396926e-01 3.514213e-01
  endloop
 endfacet
 facet normal 1.099854e-01 6.237584e-01 7.738402e-01
  outer loop
   vertex 3.420202e-01 9.396926e-01 3.514213e-01
   vertex 1.558409e-16 1.000000e+00 3.514213e-01
   vertex 1.164723e-16 7.148356e-01 5.812754e-01
  endloop
 endfacet
 facet normal -1.099854e-01 6.237584e-01 7.738402e-01
  outer loop
   vertex 1.164723e-16 7.148356e-01 5.812754e-01
   vertex 1.558409e-16 1.000000e+00 3.514213e-01
   vertex -3.420202e-01 9.396926e-01 3.514213e-01
  endloop
 endfacet
 facet normal -3.166904e-01 5.485239e-01 7.738402e-01
  outer loop
   vertex -3.420202e-01 9.396926e-01 3.514213e-01
   vertex -6.427876e-01 7.660444e-01 3.514213e-01
   vertex -4.594875e-01 5.475959e-01 5.812754e-01
  endloop
 endfacet
 facet normal -4.851979e-01 4.071294e-01 7.738402e-01
  outer loop
   vertex -4.594875e-01 5.475959e-01 5.812754e-01
   vertex -6.427876e-01 7.660444e-01 3.514213e-01
   vertex -8.660254e-01 5.000000e-01 3.514213e-01
  endloop
 endfacet
 facet normal -5.951833e-01 2.166290e-01 7.738402e-01
  outer loop
   vertex -8.660254e-01 5.000000e-01 3.514213e-01
   vertex -9.848077e-01 1.736482e-01 3.514213e-01
   vertex -7.039757e-01 1.241299e-01 5.812754e-01
  endloop
 endfacet
 facet normal -6.333809e-01 1.551336e-16 7.738402e-01
  outer loop
   vertex -7.039757e-01 1.241299e-01 5.812754e-01
   vertex -9.848077e-01 1.736482e-01 3.514213e-01
   vertex -9.848077e-01 -1.736482e-01 3.514213e-01
  endloop
 endfacet
 facet normal -5.951833e-01 -2.166290e-01 7.738402e-01
  outer loop
   vertex -9.848077e-01 -1.736482e-01 3.514213e-01
   vertex -8.660254e-01 -5.000000e-01 3.514213e-01
   vertex -6.190658e-01 -3.574178e-01 5.812754e-01
  endloop
 endfacet
 facet normal -4.851979e-01 -4.071294e-01 7.738402e-01
  outer loop
   vertex -6.190658e-01 -3.574178e-01 5.812754e-01
   vertex -8.660254e-01 -5.000000e-01 3.514213e-01
   vertex -6.427876e-01 -7.660444e-01 3.514213e-01
  endloop
 endfacet
 facet normal -3.166904e-01 -5.485239e-01 7.738402e-01
  outer loop
   vertex -6.427876e-01 -7.660444e-01 3.514213e-01
   vertex -3.420202e-01 -9.396926e-01 3.514213e-01
   vertex -2.444882e-01 -6.717257e-01 5.812754e-01
  endloop
 endfacet
 facet normal -1.099854e-01 -6.237584e-01 7.738402e-01
  outer loop
   vertex -3.420202e-01 -9.396926e-01 3.514213e-01
   vertex 1.593492e-16 -1.000000e+00 3.514213e-01
   vertex -2.444882e-01 -6.717257e-01 5.812754e-01
  endloop
 endfacet
 facet normal 0.000000e+00 -5.735765e-01 8.191521e-01
  outer loop
   vertex 1.593492e-16 -1.000000e+00 3.514213e-01
   vertex 2.444882e-01 -6.717257e-01 5.812754e-01
   vertex 1.332829e-16 -5.729887e-01 6.504118e-01
  endloop
 endfacet
 facet normal 0.000000e+00 -5.735765e-01 8.191521e-01
  outer loop
   vertex -2.444882e-01 -6.717257e-01 5.812754e-01
   vertex 1.593492e-16 -1.000000e+00 3.514213e-01
   vertex 1.332829e-16 -5.729887e-01 6.504118e-01
  endloop
 endfacet
 facet normal 3.686878e-01 -4.393851e-01 8.191521e-01
  outer loop
   vertex 6.427876e-01 -7.660444e-01 3.514213e-01
   vertex 6.190658e-01 -3.574178e-01 5.812754e-01
   vertex 3.683101e-01 -4.389348e-01 6.504118e-01
  endloop
 endfacet
 facet normal 3.686878e-01 -4.393851e-01 8.191521e-01
  outer loop
   vertex 2.444882e-01 -6.717257e-01 5.812754e-01
   vertex 6.427876e-01 -7.660444e-01 3.514213e-01
   vertex 3.683101e-01 -4.389348e-01 6.504118e-01
  endloop
 endfacet
 facet normal 5.648625e-01 -9.960050e-02 8.191521e-01
  outer loop
   vertex 9.848077e-01 -1.736482e-01 3.514213e-01
   vertex 7.039757e-01 1.241299e-01 5.812754e-01
   vertex 5.642837e-01 -9.949845e-02 6.504118e-01
  endloop
 endfacet
 facet normal 5.648625e-01 -9.960050e-02 8.191521e-01
  outer loop
   vertex 6.190658e-01 -3.574178e-01 5.812754e-01
   vertex 9.848077e-01 -1.736482e-01 3.514213e-01
   vertex 5.642837e-01 -9.949845e-02 6.504118e-01
  endloop
 endfacet
 facet normal 4.967318e-01 2.867882e-01 8.191521e-01
  outer loop
   vertex 8.660254e-01 5.000000e-01 3.514213e-01
   vertex 4.594875e-01 5.475959e-01 5.812754e-01
   vertex 4.962228e-01 2.864944e-01 6.504118e-01
  endloop
 endfacet
 facet normal 4.967318e-01 2.867882e-01 8.191521e-01
  outer loop
   vertex 7.039757e-01 1.241299e-01 5.812754e-01
   vertex 8.660254e-01 5.000000e-01 3.514213e-01
   vertex 4.962228e-01 2.864944e-01 6.504118e-01
  endloop
 endfacet
 facet normal 1.961747e-01 5.389856e-01 8.191521e-01
  outer loop
   vertex 3.420202e-01 9.396926e-01 3.514213e-01
   vertex 1.164723e-16 7.148356e-01 5.812754e-01
   vertex 1.959737e-01 5.384333e-01 6.504118e-01
  endloop
 endfacet
 facet normal 1.961747e-01 5.389856e-01 8.191521e-01
  outer loop
   vertex 4.594875e-01 5.475959e-01 5.812754e-01
   vertex 3.420202e-01 9.396926e-01 3.514213e-01
   vertex 1.959737e-01 5.384333e-01 6.504118e-01
  endloop
 endfacet
 facet normal -1.961747e-01 5.389856e-01 8.191521e-01
  outer loop
   vertex -3.420202e-01 9.396926e-01 3.514213e-01
   vertex -4.594875e-01 5.475959e-01 5.812754e-01
   vertex -1.959737e-01 5.384333e-01 6.504118e-01
  endloop
 endfacet
 facet normal -1.961747e-01 5.389856e-01 8.191521e-01
  outer loop
   vertex 1.164723e-16 7.148356e-01 5.812754e-01
   vertex -3.420202e-01 9.396926e-01 3.514213e-01
   vertex -1.959737e-01 5.384333e-01 6.504118e-01
  endloop
 endfacet
 facet normal -4.967318e-01 2.867882e-01 8.191521e-01
  outer loop
   vertex -8.660254e-01 5.000000e-01 3.514213e-01
   vertex -7.039757e-01 1.241299e-01 5.812754e-01
   vertex -4.962228e-01 2.864944e-01 6.504118e-01
  endloop
 endfacet
 facet normal -4.967318e-01 2.867882e-01 8.191521e-01
  outer loop
   vertex -4.594875e-01 5.475959e-01 5.812754e-01
   vertex -8.660254e-01 5.000000e-01 3.514213e-01
   vertex -4.962228e-01 2.864944e-01 6.504118e-01
  endloop
 endfacet
 facet normal -5.648625e-01 -9.960050e-02 8.191521e-01
  outer loop
   vertex -9.848077e-01 -1.736482e-01 3.514213e-01
   vertex -6.190658e-01 -3.574178e-01 5.812754e-01
   vertex -5.642837e-01 -9.949845e-02 6.504118e-01
  endloop
 endfacet
 facet normal -5.648625e-01 -9.960050e-02 8.191521e-01
  outer loop
   vertex -7.039757e-01 1.241299e-01 5.812754e-01
   vertex -9.848077e-01 -1.736482e-01 3.514213e-01
   vertex -5.642837e-01 -9.949845e-02 6.504118e-01
  endloop
 endfacet
 facet normal -3.686878e-01 -4.393851e-01 8.191521e-01
  outer loop
   vertex -6.427876e-01 -7.660444e-01 3.514213e-01
   vertex -2.444882e-01 -6.717257e-01 5.812754e-01
   vertex -3.683101e-01 -4.389348e-01 6.504118e-01
  endloop
 endfacet
 facet normal -3.686878e-01 -4.393851e-01 8.191521e-01
  outer loop
   vertex -6.190658e-01 -3.574178e-01 5.812754e-01
   vertex -6.427876e-01 -7.660444e-01 3.514213e-01
   vertex -3.683101e-01 -4.389348e-01 6.504118e-01
  endloop
 endfacet
 facet normal 1.247952e-01 -3.428720e-01 9.310558e-01
  outer loop
   vertex 1.332829e-16 -5.729887e-01 6.504118e-01
   vertex 2.444882e-01 -6.717257e-01 5.812754e-01
   vertex 3.683101e-01 -4.389348e-01 6.504118e-01
  endloop
 endfacet
 facet normal 3.159926e-01 -1.824384e-01 9.310558e-01
  outer loop
   vertex 3.683101e-01 -4.389348e-01 6.504118e-01
   vertex 6.190658e-01 -3.574178e-01 5.812754e-01
   vertex 5.642837e-01 -9.949845e-02 6.504118e-01
  endloop
 endfacet
 facet normal 3.593335e-01 6.336019e-02 9.310558e-01
  outer loop
   vertex 5.642837e-01 -9.949845e-02 6.504118e-01
   vertex 7.039757e-01 1.241299e-01 5.812754e-01
   vertex 4.962228e-01 2.864944e-01 6.504118e-01
  endloop
 endfacet
 facet normal 2.345383e-01 2.795118e-01 9.310558e-01
  outer loop
   vertex 4.962228e-01 2.864944e-01 6.504118e-01
   vertex 4.594875e-01 5.475959e-01 5.812754e-01
   vertex 1.959737e-01 5.384333e-01 6.504118e-01
  endloop
 endfacet
 facet normal 4.468452e-17 3.648768e-01 9.310558e-01
  outer loop
   vertex 1.959737e-01 5.384333e-01 6.504118e-01
   vertex 1.164723e-16 7.148356e-01 5.812754e-01
   vertex -1.959737e-01 5.384333e-01 6.504118e-01
  endloop
 endfacet
 facet normal -2.345383e-01 2.795118e-01 9.310558e-01
  outer loop
   vertex -1.959737e-01 5.384333e-01 6.504118e-01
   vertex -4.594875e-01 5.475959e-01 5.812754e-01
   vertex -4.962228e-01 2.864944e-01 6.504118e-01
  endloop
 endfacet
 facet normal -3.593335e-01 6.336019e-02 9.310558e-01
  outer loop
   vertex -4.962228e-01 2.864944e-01 6.504118e-01
   vertex -7.039757e-01 1.241299e-01 5.812754e-01
   vertex -5.642837e-01 -9.949845e-02 6.504118e-01
  endloop
 endfacet
 facet normal -3.159926e-01 -1.824384e-01 9.310558e-01
  outer loop
   vertex -5.642837e-01 -9.949845e-02 6.504118e-01
   vertex -6.190658e-01 -3.574178e-01 5.812754e-01
   vertex -3.683101e-01 -4.389348e-01 6.504118e-01
  endloop
 endfacet
 facet normal -1.247952e-01 -3.428720e-01 9.310558e-01
  outer loop
   vertex -3.683101e-01 -4.389348e-01 6.504118e-01
   vertex -2.444882e-01 -6.717257e-01 5.812754e-01
   vertex 1.332829e-16 -5.729887e-01 6.504118e-01
  endloop
 endfacet
 facet normal 0.000000e+00 -0.000000e+00 1.000000e+00
  outer loop
   vertex -5.642837e-01 -9.949845e-02 6.504118e-01
   vertex -3.683101e-01 -4.389348e-01 6.504118e-01
   vertex 1.332829e-16 -5.729887e-01 6.504118e-01
  endloop
 endfacet
 facet normal 0.000000e+00 -0.000000e+00 1.000000e+00
  outer loop
   vertex -4.962228e-01 2.864944e-01 6.504118e-01
   vertex -5.642837e-01 -9.949845e-02 6.504118e-01
   vertex 1.332829e-16 -5.729887e-01 6.504118e-01
  endloop
 endfacet
 facet normal 0.000000e+00 -0.000000e+00 1.000000e+00
  outer loop
   vertex -1.959737e-01 5.384333e-01 6.504118e-01
   vertex -4.962228e-01 2.864944e-01 6.504118e-01
   vertex 1.332829e-16 -5.729887e-01 6.504118e-01
  endloop
 endfacet
 facet normal 0.000000e+00 -0.000000e+00 1.000000e+00
  outer loop
   vertex 1.959737e-01 5.384333e-01 6.504118e-01
   vertex -1.959737e-01 5.384333e-01 6.504118e-01
   vertex 1.332829e-16 -5.729887e-01 6.504118e-01
  endloop
 endfacet
 facet normal 0.000000e+00 -0.000000e+00 1.000000e+00
  outer loop
   vertex 4.962228e-01 2.864944e-01 6.504118e-01
   vertex 1.959737e-01 5.384333e-01 6.504118e-01
   vertex 1.332829e-16 -5.729887e-01 6.504118e-01
  endloop
 endfacet
 facet normal 0.000000e+00 -0.000000e+00 1.000000e+00
  outer loop
   vertex 5.642837e-01 -9.949845e-02 6.504118e-01
   vertex 4.962228e-01 2.864944e-01 6.504118e-01
   vertex 1.332829e-16 -5.729887e-01 6.504118e-01
  endloop
 endfacet
 facet normal 0.000000e+00 -0.000000e+00 1.000000e+00
  outer loop
   vertex 3.683101e-01 -4.389348e-01 6.504118e-01
   vertex 5.642837e-01 -9.949845e-02 6.504118e-01
   vertex 1.332829e-16 -5.729887e-01 6.504118e-01
  endloop
 endfacet
endsolid gem
